<?xml version="1.0" encoding="iso-8859-1"?>
<!-- Uploaded to: SVG Repo, www.svgrepo.com, Generator: SVG Repo Mixer Tools -->
<svg version="1.1" id="Layer_1" xmlns="http://www.w3.org/2000/svg" xmlns:xlink="http://www.w3.org/1999/xlink" 
	 viewBox="0 0 512 512" xml:space="preserve">
<circle style="fill:#FFEDB5;" cx="256" cy="256" r="256"/>
<path style="fill:#FFC61B;" d="M348.6,101.74L166.94,415.07l97.13,96.79c134.668-4.172,243.122-112.342,247.758-246.894
	L348.6,101.74z"/>
<path style="fill:#366695;" d="M208.401,117.048L208.401,117.048c-9.063,0-16.41-7.347-16.41-16.41V67.82
	c0-9.063,7.347-16.41,16.41-16.41l0,0c9.063,0,16.41,7.347,16.41,16.41v32.818C224.809,109.701,217.464,117.048,208.401,117.048z"/>
<path style="fill:#263A7A;" d="M184.865,422.357h145.529c14.189,0,25.691-11.502,25.691-25.691V119.865
	c0-14.189-11.502-25.691-25.691-25.691H184.865c-14.189,0-25.691,11.502-25.691,25.691v276.801
	C159.173,410.855,170.675,422.357,184.865,422.357z"/>
<path style="fill:#121149;" d="M330.392,94.174h-71.518v328.183h71.518c14.189,0,25.691-11.502,25.691-25.691V119.865
	C356.083,105.675,344.581,94.174,330.392,94.174z"/>
<rect x="191.991" y="127" style="fill:#4A7CA5;" width="131.275" height="98.452"/>
<rect x="258.879" y="127" style="fill:#263A7A;" width="64.388" height="98.452"/>
<circle style="fill:#4A7CA5;" cx="208.403" cy="274.67" r="16.41"/>
<circle style="fill:#273B7A;" cx="306.855" cy="274.67" r="16.41"/>
<circle style="fill:#4A7CA5;" cx="257.62" cy="274.67" r="16.41"/>
<path style="fill:#273B7A;" d="M274.037,274.675c0-8.642-6.685-15.708-15.163-16.346v32.692
	C267.352,290.382,274.037,283.317,274.037,274.675z"/>
<circle style="fill:#4A7CA5;" cx="208.403" cy="373.122" r="16.41"/>
<circle style="fill:#273B7A;" cx="306.855" cy="373.122" r="16.41"/>
<circle style="fill:#4A7CA5;" cx="257.62" cy="373.122" r="16.41"/>
<path style="fill:#273B7A;" d="M274.037,373.129c0-8.642-6.685-15.708-15.163-16.346v32.692
	C267.352,388.837,274.037,381.771,274.037,373.129z"/>
<circle style="fill:#4A7CA5;" cx="208.403" cy="323.905" r="16.41"/>
<circle style="fill:#273B7A;" cx="306.855" cy="323.905" r="16.41"/>
<circle style="fill:#4A7CA5;" cx="257.62" cy="323.905" r="16.41"/>
<path style="fill:#273B7A;" d="M274.037,323.901c0-8.642-6.685-15.708-15.163-16.346v32.692
	C267.352,339.609,274.037,332.545,274.037,323.901z"/>
</svg>