<?xml version="1.0" encoding="iso-8859-1"?>
<!-- Uploaded to: SVG Repo, www.svgrepo.com, Generator: SVG Repo Mixer Tools -->
<svg height="800px" width="800px" version="1.1" id="Layer_1" xmlns="http://www.w3.org/2000/svg" xmlns:xlink="http://www.w3.org/1999/xlink" 
	 viewBox="0 0 512 512" xml:space="preserve">
<path d="M294.395,511.985c0,0-38.767-75.63,35.783-127.996s95.453-81.429,95.453-81.429s41.743-11.632,23.855,23.271
	c-12.001,22.282-28.2,42.03-47.702,58.159c0,0,56.654-11.632,71.566-58.174s0-72.717,35.783-81.446c0,0,17.888,87.262-35.783,139.62
	s-116.293,72.716-119.277,127.995H294.395z"/>
<path d="M217.597,511.985c0,0,38.767-75.63-35.783-127.996S86.361,302.56,86.361,302.56S44.61,290.92,62.506,325.831
	c12.001,22.282,28.2,42.03,47.702,58.159c0,0-56.654-11.624-71.558-58.159s0-72.717-35.783-81.446c0,0-17.888,87.262,35.783,139.62
	S154.944,456.723,157.927,512L217.597,511.985z"/>
<circle style="fill:#E21B1B;" cx="256" cy="159.664" r="159.664"/>
<path style="fill:#FFFFFF;" d="M246.764,251.433v-23.199c-13.607-0.153-26.95-3.773-38.767-10.519l6.455-22.48
	c11.306,6.696,24.165,10.322,37.303,10.519c15.064,0,25.351-7.415,25.351-18.888c0-10.76-8.376-17.696-26.071-24.151
	c-25.111-9.088-41.366-20.568-41.366-42.807c0-20.559,14.343-36.343,38.503-40.655V55.822h19.608v22.239
	c11.452,0.127,22.728,2.822,32.999,7.888l-6.455,21.999c-10.036-5.266-21.185-8.056-32.519-8.135
	c-16.744,0-22.72,8.608-22.72,16.736c0,9.808,8.608,15.303,28.935,23.44c26.783,10.04,38.735,22.959,38.735,44.238
	c0,20.327-14.111,38.262-40.414,42.567v24.639h-19.576V251.433z"/>
</svg>