<?xml version="1.0" encoding="iso-8859-1"?>
<!-- Uploaded to: SVG Repo, www.svgrepo.com, Generator: SVG Repo Mixer Tools -->
<svg height="800px" width="800px" version="1.1" id="Layer_1" xmlns="http://www.w3.org/2000/svg" xmlns:xlink="http://www.w3.org/1999/xlink" 
	 viewBox="0 0 512 512" xml:space="preserve">
<path style="fill:#FFC850;" d="M50.772,127.733h410.455c14.168,0,25.653,11.485,25.653,25.653v136.818H25.119V153.386
	C25.119,139.218,36.604,127.733,50.772,127.733z"/>
<path style="fill:#F1F4FB;" d="M367.165,8.017H67.875c-4.722,0-8.551,3.829-8.551,8.551v230.881l393.353-0.002V93.528L367.165,8.017
	z"/>
<path style="fill:#D5DCED;" d="M367.165,8.017v59.858c0,14.168,11.485,25.653,25.653,25.653h59.858L367.165,8.017z"/>
<path style="fill:#FFDC64;" d="M461.228,503.983H50.772c-14.168,0-25.653-11.485-25.653-25.653V221.795
	c0-14.168,11.485-25.653,25.653-25.653h105.385c14.295,0,27.645,7.144,35.575,19.039l8.819,13.229
	c7.93,11.895,21.28,19.039,35.575,19.039h225.1c14.168,0,25.653,11.485,25.653,25.653V478.33
	C486.881,492.498,475.396,503.983,461.228,503.983z"/>
<path d="M461.228,119.716h-0.534V93.528c0-2.126-0.844-4.165-2.348-5.668L372.833,2.348C371.33,0.844,369.291,0,367.165,0H67.875
	c-9.136,0-16.568,7.432-16.568,16.568v103.148h-0.534c-18.566,0-33.67,15.105-33.67,33.67V478.33c0,18.566,15.105,33.67,33.67,33.67
	h410.455c18.566,0,33.67-15.105,33.67-33.67V153.386C494.898,134.821,479.793,119.716,461.228,119.716z M461.228,135.749
	c9.725,0,17.637,7.912,17.637,17.637v91.049c-5.133-3.169-11.174-5.003-17.637-5.003h-0.534V135.749H461.228z M375.182,27.37
	l58.141,58.141h-40.505c-9.725,0-17.637-7.912-17.637-17.637V27.37z M67.34,16.568c0-0.295,0.239-0.534,0.534-0.534h291.273v51.841
	c0,18.566,15.105,33.67,33.67,33.67h51.841v137.887H236.126c-11.641,0-22.447-5.783-28.905-15.469l-8.819-13.229
	c-9.437-14.157-25.229-22.609-42.244-22.609H67.34V16.568z M50.772,135.749h0.534v52.376h-0.534c-6.463,0-12.504,1.834-17.637,5.003
	v-39.743C33.136,143.661,41.048,135.749,50.772,135.749z M478.864,478.33c0,9.725-7.912,17.637-17.637,17.637H50.772
	c-9.725,0-17.637-7.912-17.637-17.637V221.795c0-9.725,7.912-17.637,17.637-17.637h105.385c11.641,0,22.447,5.783,28.905,15.469
	l8.819,13.229c9.438,14.158,25.23,22.609,42.245,22.609h225.1c9.725,0,17.637,7.912,17.637,17.637V478.33z"/>
<path d="M110.096,126.129c0-4.427-3.589-8.017-8.017-8.017c-4.427,0-8.017,3.589-8.017,8.017c0,12.784,10.768,23.198,25.653,25.984
	v1.273c0,4.427,3.589,8.017,8.017,8.017c4.427,0,8.017-3.589,8.017-8.017v-1.273c14.885-2.786,25.653-13.2,25.653-25.984
	c0-17.862-14.265-25.369-25.653-29.69V68.582c5.907,1.936,9.62,5.834,9.62,9.447c0,4.427,3.589,8.017,8.017,8.017
	c4.427,0,8.017-3.589,8.017-8.017c0-12.784-10.768-23.198-25.653-25.984v-1.273c0-4.427-3.589-8.017-8.017-8.017
	c-4.427,0-8.017,3.589-8.017,8.017v1.273c-14.885,2.786-25.653,13.2-25.653,25.984c0,17.862,14.265,25.369,25.653,29.69v27.859
	C113.809,133.641,110.096,129.743,110.096,126.129z M145.37,126.129c0,3.614-3.713,7.511-9.62,9.447v-21.645
	C143.742,117.848,145.37,121.268,145.37,126.129z M110.096,78.029c0-3.614,3.713-7.511,9.62-9.447v21.645
	C111.724,86.311,110.096,82.891,110.096,78.029z"/>
<path d="M196.142,75.891h85.511c4.427,0,8.017-3.589,8.017-8.017s-3.589-8.017-8.017-8.017h-85.511
	c-4.427,0-8.017,3.589-8.017,8.017S191.715,75.891,196.142,75.891z"/>
<path d="M196.142,144.301h17.102c4.427,0,8.017-3.589,8.017-8.017c0-4.427-3.589-8.017-8.017-8.017h-17.102
	c-4.427,0-8.017,3.589-8.017,8.017C188.125,140.711,191.715,144.301,196.142,144.301z"/>
<path d="M315.858,144.301c4.427,0,8.017-3.589,8.017-8.017c0-4.427-3.589-8.017-8.017-8.017h-17.102
	c-4.427,0-8.017,3.589-8.017,8.017c0,4.427,3.589,8.017,8.017,8.017H315.858z"/>
<path d="M264.551,144.301c4.427,0,8.017-3.589,8.017-8.017c0-4.427-3.589-8.017-8.017-8.017h-17.102
	c-4.427,0-8.017,3.589-8.017,8.017c0,4.427,3.589,8.017,8.017,8.017H264.551z"/>
<path d="M196.142,110.096H332.96c4.427,0,8.017-3.589,8.017-8.017c0-4.427-3.589-8.017-8.017-8.017H196.142
	c-4.427,0-8.017,3.589-8.017,8.017C188.125,106.507,191.715,110.096,196.142,110.096z"/>
<path d="M205.228,179.04c0,4.427,3.589,8.017,8.017,8.017h136.818c4.427,0,8.017-3.589,8.017-8.017s-3.589-8.017-8.017-8.017
	H213.244C208.817,171.023,205.228,174.612,205.228,179.04z"/>
<path d="M384.267,187.056h17.102c4.427,0,8.017-3.589,8.017-8.017s-3.589-8.017-8.017-8.017h-17.102
	c-4.427,0-8.017,3.589-8.017,8.017S379.84,187.056,384.267,187.056z"/>
<path d="M350.063,205.228H238.898c-4.427,0-8.017,3.589-8.017,8.017s3.589,8.017,8.017,8.017h111.165
	c4.427,0,8.017-3.589,8.017-8.017S354.49,205.228,350.063,205.228z"/>
<path d="M384.267,221.261h17.102c4.427,0,8.017-3.589,8.017-8.017s-3.589-8.017-8.017-8.017h-17.102
	c-4.427,0-8.017,3.589-8.017,8.017S379.84,221.261,384.267,221.261z"/>
</svg>