<?xml version="1.0" encoding="iso-8859-1"?>
<!-- Uploaded to: SVG Repo, www.svgrepo.com, Generator: SVG Repo Mixer Tools -->
<svg version="1.1" id="Layer_1" xmlns="http://www.w3.org/2000/svg" xmlns:xlink="http://www.w3.org/1999/xlink" 
	 viewBox="0 0 512 512" xml:space="preserve">
<rect x="307.9" y="161.957" style="fill:#898989;" width="37.228" height="237.673"/>
<g>
	<rect x="289.562" y="161.957" style="fill:#B3B3B3;" width="27.782" height="237.673"/>
	<rect x="185.208" y="161.957" style="fill:#B3B3B3;" width="37.228" height="237.673"/>
</g>
<rect x="166.881" y="161.957" style="fill:#D8D8D8;" width="27.782" height="237.673"/>
<rect x="62.527" y="161.957" style="fill:#B3B3B3;" width="37.228" height="237.673"/>
<rect x="44.189" y="161.957" style="fill:#D8D8D8;" width="27.782" height="237.673"/>
<rect x="430.582" y="161.957" style="fill:#898989;" width="37.228" height="237.673"/>
<rect x="412.244" y="161.957" style="fill:#B3B3B3;" width="27.782" height="237.673"/>
<polygon style="fill:#D8D8D8;" points="512,150.539 256,45.81 222.439,126.779 256,178.567 512,178.567 "/>
<polygon style="fill:#EEEEEE;" points="0,150.539 0,178.567 256,178.567 256,45.81 "/>
<polygon style="fill:#D8D8D8;" points="512,466.185 512,383.017 256,383.017 229.181,429.333 256,466.185 "/>
<rect y="383.016" style="fill:#EEEEEE;" width="256" height="83.174"/>
</svg>