<?xml version="1.0" encoding="iso-8859-1"?>
<!-- Uploaded to: SVG Repo, www.svgrepo.com, Generator: SVG Repo Mixer Tools -->
<svg version="1.1" id="Layer_1" xmlns="http://www.w3.org/2000/svg" xmlns:xlink="http://www.w3.org/1999/xlink" 
	 viewBox="0 0 512 512" xml:space="preserve">
<polygon style="fill:#C7E7EB;" points="256,20.218 53.451,153.768 53.451,210.031 410.725,512 458.549,512 458.549,153.768 "/>
<polygon style="fill:#E5FAFC;" points="256,76.482 53.451,210.031 53.451,512 101.275,512 410.725,241.934 410.725,178.498 "/>
<polygon style="fill:#111449;" points="365.714,241.934 331.956,376.967 365.714,512 410.725,512 410.725,241.934 "/>
<rect x="101.275" y="241.934" style="fill:#27467A;" width="264.44" height="270.066"/>
<polygon style="fill:#FF0F47;" points="256,0 244.747,40.436 256,40.436 493.417,196.975 512,168.791 "/>
<polygon style="fill:#FF6176;" points="0,168.791 18.583,196.975 256,40.436 256,0 "/>
<rect x="309.451" y="331.956" style="fill:#2F5E88;" width="56.264" height="157.538"/>
<rect x="146.286" y="331.956" style="fill:#367596;" width="185.67" height="157.538"/>
<polygon style="fill:#88ACB5;" points="343.209,466.989 320.703,489.495 343.209,512 376.967,512 376.967,466.989 "/>
<rect x="135.033" y="466.989" style="fill:#A7CBCF;" width="208.176" height="45.011"/>
<polygon style="fill:#88ACB5;" points="343.209,309.451 320.703,331.956 343.209,354.462 376.967,354.462 376.967,309.451 "/>
<rect x="135.033" y="309.451" style="fill:#A7CBCF;" width="208.176" height="45.011"/>
<polygon style="fill:#88ACB5;" points="343.209,388.22 320.703,410.725 343.209,433.231 376.967,433.231 376.967,388.22 "/>
<rect x="135.033" y="388.22" style="fill:#A7CBCF;" width="208.176" height="45.011"/>
</svg>